<?xml version="1.0" encoding="UTF-8"?>
<svg id="Layer_1" data-name="Layer 1" xmlns="http://www.w3.org/2000/svg" viewBox="0 0 500 107">
  <defs>
    <style>
      .cls-1 {
        fill: #fff;
      }
    </style>
  </defs>
  <rect class="cls-1" x="1.5" y="1.5" width="497" height="104" rx="42.77" ry="42.77"/>
  <path d="M455.73,3c22.75,0,41.27,18.51,41.27,41.27v18.47c0,22.75-18.51,41.27-41.27,41.27H44.27c-22.75,0-41.27-18.51-41.27-41.27v-18.47C3,21.51,21.51,3,44.27,3H455.73m0-3H44.27C19.82,0,0,19.82,0,44.27v18.47c0,24.45,19.82,44.27,44.27,44.27H455.73c24.45,0,44.27-19.82,44.27-44.27v-18.47c0-24.45-19.82-44.27-44.27-44.27h0Z"/>
</svg>