<?xml version="1.0" encoding="utf-8"?>
<!-- Generator: Adobe Illustrator 26.4.0, SVG Export Plug-In . SVG Version: 6.00 Build 0)  -->
<svg version="1.1" id="Layer_1" xmlns="http://www.w3.org/2000/svg" xmlns:xlink="http://www.w3.org/1999/xlink" x="0px" y="0px"
	 viewBox="0 0 1920 1080" style="enable-background:new 0 0 1920 1080;" xml:space="preserve">
<style type="text/css">
	.st0{fill:#FFFFFF;}
</style>
<g>
	<path class="st0" d="M778.27,693.5c-23.58,0-42.77-19.19-42.77-42.77v-18.46c0-23.58,19.19-42.77,42.77-42.77h411.47
		c23.58,0,42.77,19.19,42.77,42.77v18.46c0,23.58-19.19,42.77-42.77,42.77H778.27z"/>
	<path d="M1189.73,591c22.75,0,41.27,18.51,41.27,41.27v18.47c0,22.75-18.51,41.27-41.27,41.27H778.27
		c-22.75,0-41.27-18.51-41.27-41.27v-18.47c0-22.75,18.51-41.27,41.27-41.27H1189.73 M1189.73,588H778.27
		c-24.45,0-44.27,19.82-44.27,44.27v18.47c0,24.45,19.82,44.27,44.27,44.27h411.47c24.45,0,44.27-19.82,44.27-44.27v-18.47
		C1234,607.82,1214.18,588,1189.73,588L1189.73,588z"/>
</g>
</svg>
