<?xml version="1.0" encoding="UTF-8"?>
<svg id="Layer_3" data-name="Layer 3" xmlns="http://www.w3.org/2000/svg" viewBox="0 0 575.47 343.43" preserveAspectRatio="none">
  <defs>
    <style>
      .cls-1 {
        fill: #fff;
        stroke: #000;
        stroke-miterlimit: 10;
        stroke-width: 13px;
      }
    </style>
  </defs>
  <path class="cls-1" d="M473.45,331.79c-25.07,2.91-50.03,4.48-62.36,4.97-23.51,.93-132.94-2.35-147.23-1.41-43.33,2.84-183.92-5.44-197.73-7.9-3.97,0-25.09-1.03-42.16-45.35-10.79-28.02-17.46-66.72-17.46-109.48h0C6.5,87.12,33.19,17.81,66.12,17.81c7.43,0,14.87,0,22.3,0,22.38,0,39.24,.6,61.46,0,14.73-.4,26.06-1.08,32.54-1.48,24.59-1.51,80.94-3.87,85.69-3.79,0,0,19.62-.31,41.93-1.49,17.27-.92,25.9-1.56,34.31-2.43,19.93-2.06,77.53-.2,80.95-.41,14.32-.88,26.5-1.52,27.16-1.55,23.73-1.24,41.09,5.31,56.58,11.15,8.96,3.38,16.05,6.86,24.33,16.25,9.25,10.49,15.08,22.77,17.83,29.1,3.15,7.25,6.95,16.12,10.16,30.88,2.43,11.16,3.41,20.55,4.62,32.56,1.12,11.05,2.34,26.71,2.68,46.04h0c.54,12.49,1.03,39.87-4.56,68.72-4.07,20.99-9.54,33.32-12.9,40.75-8.75,19.35-68.49,48.61-77.75,49.69Z"/>
</svg>