<?xml version="1.0" encoding="UTF-8"?>
<svg id="Layer_3" data-name="Layer 3" xmlns="http://www.w3.org/2000/svg" viewBox="0 0 485.09 122.79" preserveAspectRatio="none">
  <defs>
    <style>
      .cls-1 {
        fill: #fff;
        stroke: #000;
        stroke-miterlimit: 10;
        stroke-width: 13px;
      }
    </style>
  </defs>
  <path class="cls-1" d="M428.29,110.67c-11.96,.59-22.1,1.06-29.87,1.4-21.04,.94-28.23,1.16-34.33,1.31-2.44,.06-7.66,.14-18.01,.3-19.73,.3-29.71,.45-34.85,.44-13.36-.04-18.81-.49-31.53-.89-25.44-.8-45.19-.3-57.19,0-36.37,.92-33.54,2.97-59.74,3.06-12.5,.04-27.74-.82-57.7-2.55-20.21-1.17-36.92-2.27-48.51-3.06-3.33,0-21.06-.33-35.39-14.66-9.06-9.06-14.66-21.57-14.66-35.39h0C6.5,32.99,28.9,10.58,56.54,10.58c6.24,0,12.48,0,18.72,0,18.78,0,32.94,.19,51.58,0,12.37-.13,21.87-.35,27.31-.48,20.64-.49,26.98-.93,42.61-1.17,14.86-.23,25.32-.08,29.31-.06,0,0,16.47-.1,35.19-.48,14.49-.3,21.73-.51,28.79-.79,16.73-.66,32.63-1.67,44.9-.73,.94,.07,3.64,.29,7.37,.46,7.3,.33,12.8,.2,15.67,.13,12.02-.28,22.24-.49,22.8-.5,19.91-.4,34.49,1.72,47.49,3.6,7.52,1.09,13.47,2.22,20.42,5.25,7.76,3.39,12.66,7.36,14.97,9.41,2.65,2.34,5.83,5.21,8.53,9.98,2.04,3.61,2.86,6.64,3.88,10.52,.94,3.57,1.96,8.63,2.25,14.88h0c.45,4.04,.87,12.89-3.83,22.21-3.42,6.78-8.01,10.77-10.83,13.17-7.34,6.25-14.74,8.78-21.47,11.08-5.71,1.95-10.59,2.99-13.91,3.57Z"/>
</svg>